<svg width="587" height="170" viewBox="0 0 587 170" fill="none" xmlns="http://www.w3.org/2000/svg">
<path fill-rule="evenodd" clip-rule="evenodd" d="M0 2.6226e-06L19.5667 16.1905C39.1333 32.381 78.2667 64.7619 117.4 68.8095C156.533 72.8571 195.667 48.5714 234.8 40.4762C273.933 32.381 313.067 40.4762 352.2 56.6667C391.333 72.8571 430.467 97.1429 469.6 117.381C508.733 137.619 547.867 153.81 567.433 161.905L587 170V2.6226e-06H567.433C547.867 2.6226e-06 508.733 2.6226e-06 469.6 2.6226e-06C430.467 2.6226e-06 391.333 2.6226e-06 352.2 2.6226e-06C313.067 2.6226e-06 273.933 2.6226e-06 234.8 2.6226e-06C195.667 2.6226e-06 156.533 2.6226e-06 117.4 2.6226e-06C78.2667 2.6226e-06 39.1333 2.6226e-06 19.5667 2.6226e-06H0Z" fill="url(#paint0_linear_128_9)"/>
<defs>
<linearGradient id="paint0_linear_128_9" x1="587" y1="170" x2="1.68563e-06" y2="-7.12924e-05" gradientUnits="userSpaceOnUse">
<stop stop-color="#CC0033"/>
<stop offset="1" stop-color="#E53C5D"/>
</linearGradient>
</defs>
</svg>
